<?xml version="1.0" encoding="UTF-8"?>
<svg width="200px" height="188px" viewBox="0 0 200 188" version="1.1" xmlns="http://www.w3.org/2000/svg" xmlns:xlink="http://www.w3.org/1999/xlink">
    <title>Icons/Home</title>
    <g id="Icons/Home" stroke="none" stroke-width="1" fill="none" fill-rule="evenodd">
        <g id="编组" fill="#FC9CAA" fill-rule="nonzero">
            <path d="M196.715607,80.6483477 L109.161728,3.68399784 C103.737069,-1.08365921 95.6163789,-1.08365921 90.1917205,3.68399784 L2.63784124,80.6483477 C-2.33926006,85.0193068 0.756555316,93.2201868 7.38146552,93.2201868 L20.6537356,93.2201868 L20.6537356,172.63829 C20.6537356,180.573416 27.086426,187.006106 35.0215517,187.006106 L73.8146552,187.006106 L73.8146552,136.71875 C73.8146552,128.783624 80.2473455,122.350934 88.1824713,122.350934 L111.170977,122.350934 C119.106103,122.350934 125.538793,128.783624 125.538793,136.71875 L125.538793,187.006106 L164.331897,187.006106 C172.267022,187.006106 178.699713,180.573416 178.699713,172.63829 L178.699713,93.2269217 L191.971983,93.2269217 C198.596893,93.2269217 201.690463,85.0193068 196.715607,80.6483477 Z" id="路径"></path>
        </g>
    </g>
</svg>