<?xml version="1.0" encoding="UTF-8"?>
<svg width="200px" height="150px" viewBox="0 0 200 150" version="1.1" xmlns="http://www.w3.org/2000/svg" xmlns:xlink="http://www.w3.org/1999/xlink">
    <title>Icons/Code</title>
    <g id="Icons/Code" stroke="none" stroke-width="1" fill="none" fill-rule="evenodd">
        <g id="编组" fill="#FC9CAA" fill-rule="nonzero">
            <path d="M46.7381841,27.9850746 C44.113806,27.9850746 41.7506219,29.079602 40.0559701,30.824005 L40.0466418,30.8146766 L3.27425373,67.5839552 C1.20379927,69.3385808 0.00698236196,71.9129306 -1.02840622e-15,74.6268657 C-1.02840622e-15,77.2512438 1.09141791,79.6144279 2.8358209,81.3059701 L2.82960199,81.318408 L40.1430348,118.631841 L40.1523632,118.619403 C41.8851734,120.318134 44.2152053,121.268657 46.641791,121.268657 C51.793701,121.268657 55.9701493,117.092208 55.9701493,111.940299 C55.9701493,109.415423 54.9564677,107.129975 53.324005,105.450871 L53.3333333,105.441542 L22.568408,74.6735075 L53.2369403,44.0049751 L53.2276119,43.9956468 C55.0410517,42.2454704 56.065695,39.8336869 56.0665423,37.3134328 C56.0665423,32.1615229 51.8900941,27.9850746 46.7381841,27.9850746 Z M199.101369,74.6268657 C199.101369,71.7972637 197.817164,69.2941542 195.827114,67.5839552 L159.054726,30.8146766 L159.048507,30.824005 C157.296754,29.0109922 154.884226,27.9865094 152.363184,27.9850746 C147.211274,27.9850746 143.034826,32.1615229 143.034826,37.3134328 C143.034826,39.9378109 144.129353,42.300995 145.873756,43.9956468 L145.864428,44.0049751 L176.53296,74.6735075 L145.764925,105.441542 L145.774254,105.450871 C144.07892,107.185664 143.129239,109.514672 143.128109,111.940299 C143.128109,117.092208 147.304558,121.268657 152.456468,121.268657 C154.981343,121.268657 157.266791,120.254975 158.949005,118.619403 L158.958333,118.631841 L196.271766,81.318408 L196.262438,81.3059701 C198.077514,79.5582043 199.102548,77.146625 199.101369,74.6268657 Z M124.378109,0 C120.335821,0 116.896766,2.57151741 115.600124,6.16293532 L65.920398,136.579602 C64.1223815,141.4078 66.5788292,146.779409 71.4070274,148.577425 C76.2352257,150.375442 81.6068341,147.918994 83.4048507,143.090796 L133.084577,12.6741294 C134.186616,9.80596472 133.80558,6.57905869 132.065814,4.04645683 C130.326048,1.51385497 127.450707,0 124.378109,0 Z" id="形状"></path>
        </g>
    </g>
</svg>