<?xml version="1.0" encoding="UTF-8"?>
<svg width="200px" height="200px" viewBox="0 0 200 200" version="1.1" xmlns="http://www.w3.org/2000/svg" xmlns:xlink="http://www.w3.org/1999/xlink">
    <title>Icons/About</title>
    <g id="Icons/About" stroke="none" stroke-width="1" fill="none" fill-rule="evenodd">
        <g id="编组" fill="#FC9CAA" fill-rule="nonzero">
            <path d="M100,0 C44.8,0 0,44.8 0,100 C0,155.2 44.8,200 100,200 C155.2,200 200,155.2 200,100 C200,44.8 155.2,0 100,0 Z M112.2,151.2 C112.2,156.6 107.8,161 102.4,161 L97.5,161 C92.1,161 87.7,156.6 87.7,151.2 L87.7,92.7 C87.7,87.3 92.1,82.9 97.5,82.9 L102.4,82.9 C107.8,82.9 112.2,87.3 112.2,92.7 L112.2,151.2 Z M87.8,56.1 C87.8,49.4 93.3,43.9 100,43.9 C106.7,43.9 112.2,49.4 112.2,56.1 C112.2,62.8 106.7,68.3 100,68.3 C93.3,68.3 87.8,62.8 87.8,56.1 Z" id="形状"></path>
        </g>
    </g>
</svg>