<svg width="32px" height="32px" viewBox="0 0 32 32" version="1.1" xmlns="http://www.w3.org/2000/svg" xmlns:xlink="http://www.w3.org/1999/xlink">
    <path d="M15.8708333,-1.24344979e-13 C24.7375,-1.24344979e-13 31.8708333,7.2 31.8708333,16 C31.8708333,24.8 24.7375,31.9333333 15.9375,31.9333333 C7.5375,31.9333333 0.670833312,25.4 0.00416665625,17.2 L0.00416665625,17.2 L0.00416665625,14.7333333 C0.604166656,6.46666666 7.47083334,-1.24344979e-13 15.8708333,-1.24344979e-13 Z M17.4708333,10.6666667 C16.7375,10.6666667 16.0708333,11.3333333 16.0708333,12.0666667 L16.0708333,16.6666667 C16.0708333,18.4 14.6708333,19.8 13.0041667,19.8 C11.2708333,19.8 9.9375,18.4 9.9375,16.6666667 L9.9375,12.0666667 C9.9375,11.2666667 9.3375,10.6666667 8.5375,10.6666667 C7.80416666,10.6666667 7.1375,11.3333333 7.1375,12.0666667 L7.1375,16.6666667 C7.1375,20 9.7375,22.6666667 13.0041667,22.6666667 C16.2708333,22.6666667 18.8708333,20 18.8708333,16.6666667 L18.8708333,12.0666667 C18.8708333,11.2666667 18.2708333,10.6666667 17.4708333,10.6666667 Z M23.4041667,10.6666667 C22.6708333,10.6666667 22.0041667,11.3333333 22.0041667,12.0666667 L22.0041667,21.2666667 C22.0041667,22.0666667 22.6041667,22.6666667 23.4041667,22.6666667 C24.1375,22.6666667 24.8041667,22 24.8041667,21.2666667 L24.8041667,12.0666667 C24.8041667,11.2666667 24.2041667,10.6666667 23.4041667,10.6666667 Z"></path>
</svg>