<svg width="64px" height="59px" viewBox="0 0 64 59" version="1.1" xmlns="http://www.w3.org/2000/svg" xmlns:xlink="http://www.w3.org/1999/xlink">
    <path d="M51.8349302,1.24770457 C52.5838061,1.99638302 53.0045368,3.01192742 53.0045368,4.07085827 C53.0045368,5.12978912 52.5838061,6.14533353 51.8349302,6.89401198 L48.1846308,10.5411177 L51.9211577,10.5411177 C55.0979565,10.5411176 58.1445952,11.8033146 60.3906317,14.04995 C62.6366682,16.2965854 63.8980528,19.3435606 63.897206,22.5203593 L63.897206,46.4724551 C63.897206,53.0866437 58.5353463,58.448503 51.9211577,58.448503 L12.000998,58.448503 C5.38680936,58.448503 0.0249500749,53.0866437 0.0249500749,46.4724551 L0.0249500749,22.5203593 C0.0249500749,15.9061707 5.38680936,10.5443114 12.000998,10.5443114 L15.7247505,10.5443114 L12.0808383,6.89720561 C11.0428087,5.89520488 10.6262008,4.41107977 10.9911377,3.01525312 C11.3560746,1.61942648 12.4457637,0.529120584 13.8413837,0.163394042 C15.2370037,-0.202332499 16.7213642,0.213435658 17.7239521,1.2508982 L26.1934132,9.72035928 C26.4457086,9.97265472 26.6564871,10.2473054 26.8257485,10.5411177 L37.0868263,10.5411177 C37.2560878,10.2473054 37.4700599,9.96626744 37.7223553,9.71716564 L46.1886228,1.24770457 C46.9373012,0.498828662 47.9528456,0.0780979566 49.0117765,0.0780979566 C50.0707073,0.0780979566 51.0862517,0.498828662 51.8349302,1.24770457 Z M51.9211577,18.5570856 L12.000998,18.5570856 C9.91091804,18.5563094 8.17406469,20.1678084 8.01856287,22.2520958 L8.00898204,22.5522954 L8.00898204,46.5043912 C8.00898204,48.608982 9.63772455,50.3335329 11.703992,50.4836327 L12.000998,50.4964075 L51.9211577,50.4964075 C54.0112377,50.4971837 55.748091,48.8856846 55.9035928,46.8013972 L55.9131737,46.5043912 L55.9131737,22.5522954 C55.9131737,20.3487026 54.1247505,18.5602795 51.9211577,18.5602794 L51.9211577,18.5570856 Z M19.9850299,26.5411177 C22.1886228,26.5411177 23.9770459,28.3295409 23.9770459,30.5331338 L23.9770459,34.5251497 C23.9770459,36.7298792 22.1897595,38.5171656 19.9850299,38.5171656 C17.7803004,38.5171656 15.993014,36.7298792 15.993014,34.5251497 L15.993014,30.5331338 C15.993014,28.3295409 17.7814371,26.5411177 19.9850299,26.5411177 L19.9850299,26.5411177 Z M43.9371257,26.5411177 C46.1407186,26.5411177 47.9291417,28.3295409 47.9291417,30.5331338 L47.9291417,34.5251497 C47.9291417,36.7298792 46.1418553,38.5171656 43.9371257,38.5171656 C41.7323962,38.5171656 39.9451098,36.7298792 39.9451098,34.5251497 L39.9451098,30.5331338 C39.9451098,28.3295409 41.7335329,26.5411177 43.9371257,26.5411177 Z" id="形状"></path>
</svg>