<?xml version="1.0" encoding="UTF-8"?>
<svg width="200px" height="174px" viewBox="0 0 200 174" version="1.1" xmlns="http://www.w3.org/2000/svg" xmlns:xlink="http://www.w3.org/1999/xlink">
    <title>Icons/Friends</title>
    <g id="Icons/Friends" stroke="none" stroke-width="1" fill="none" fill-rule="evenodd">
        <g id="编组" fill="#FC9CAA" fill-rule="nonzero">
            <path d="M120.299746,0.181901198 C146.021662,0.181901198 166.873398,21.0336377 166.873398,46.7555539 C166.873398,65.4300449 155.88226,81.5375898 140.015913,88.962021 L140.015913,88.9589072 C174.394117,97.8614222 199.78262,129.093039 199.78262,166.254716 L199.78262,166.144536 L199.78262,166.254716 C199.78262,169.928967 196.803937,172.907889 193.129446,172.907889 L46.7555539,172.907889 L46.6453743,172.907889 C43.0214222,172.848249 40.1021407,169.89232 40.1021407,166.254716 L40.1126796,164.934237 C40.7086078,128.189326 66.1277695,97.4784281 100.331602,88.8405838 L100.332081,88.8434581 C84.6013024,81.3670509 73.7260928,65.3311228 73.7260928,46.7555539 C73.7260928,21.0333982 94.5778293,0.181901198 120.299746,0.181901198 Z M67.013518,15.6628593 C69.1874102,15.6628593 71.3196257,15.8415419 73.3962725,16.1852545 C67.3155539,24.8357934 63.7462126,35.3787874 63.7462126,46.7553144 C63.7462126,62.5174701 70.6614222,77.0324401 82.0551946,86.9368713 C53.0805838,99.5560329 32.8425,127.371362 30.3759132,159.601302 L5.72633234,159.601302 L5.63459581,159.601302 C2.61495509,159.551482 0.181901198,157.088249 0.181901198,154.056871 L0.190763473,152.956512 C0.687290419,122.335434 21.8700449,96.7430988 50.373518,89.545015 L50.3737575,89.5474102 C37.2647754,83.3174701 28.202021,69.9541168 28.202021,54.4743563 C28.202021,33.0393862 45.5785479,15.6628593 67.0132784,15.6628593 L67.013518,15.6628593 Z" id="形状"></path>
        </g>
    </g>
</svg>