<svg viewBox="0 0 64 63" version="1.1" xmlns="http://www.w3.org/2000/svg" xmlns:xlink="http://www.w3.org/1999/xlink">
    <path d="M31.9610778,0.0652694611 C16.297367,0.0652694611 2.94534808,11.4247862 0.436535346,26.886277 C-2.07227739,42.3477678 7.00271178,57.3466861 21.8628743,62.2992016 C23.4596806,62.5802395 24.0568862,61.6221557 24.0568862,60.7822356 C24.0568862,60.0253493 24.0185629,57.5087825 24.0185629,54.8357285 C15.993014,56.3111776 13.9171656,52.8780439 13.2784431,51.0832335 C12.5699143,49.335545 11.4463861,47.7867202 10.00499,46.5706587 C8.8872256,45.9734531 7.29041916,44.4948104 9.96347305,44.4564871 C12.0367738,44.6808384 13.8701841,45.9027146 14.8752495,47.7299401 C15.7571646,49.3145679 17.2335081,50.4830286 18.9783453,50.9773592 C20.7231825,51.4716898 22.5930197,51.251237 24.1750499,50.3646707 C24.3133766,48.7403104 25.0375275,47.2216364 26.2125749,46.0916168 C19.1067865,45.2932135 11.6816368,42.5403194 11.6816368,30.3247505 C11.636392,27.1502225 12.8076321,24.0787165 14.9550898,21.7403194 C13.9788321,18.9817254 14.0930701,15.9544191 15.2744511,13.2772455 C15.2744511,13.2772455 17.947505,12.4405189 24.0568862,16.5506986 C29.2825466,15.1134133 34.7992897,15.1134133 40.0249501,16.5506986 C46.1311377,12.3990019 48.8073852,13.2772455 48.8073853,13.2772455 C49.989087,15.9543452 50.1033296,18.981775 49.1267465,21.7403194 C51.2807088,24.074691 52.4529778,27.1488949 52.4001996,30.3247505 C52.4001996,42.5786427 44.9335329,45.2932136 37.8277445,46.0916168 C39.3699677,47.6546604 40.1566823,49.8108411 39.9834332,51.9998004 C39.9834332,56.2728543 39.9451098,59.705988 39.9451098,60.7822356 C39.9451098,61.6221557 40.5423154,62.6185629 42.1391218,62.2992016 C56.9706494,57.3056607 66.0027297,42.3046779 63.4768752,26.8602704 C60.9510207,11.415863 47.6106654,0.0737785584 31.9610778,0.0652694611 Z" id="路径"></path>
</svg>