<svg viewBox="0 0 32 30" version="1.1" xmlns="http://www.w3.org/2000/svg" xmlns:xlink="http://www.w3.org/1999/xlink">
    <path d="M31.4744971,12.9037356 L17.4658764,0.589439655 C16.5979311,-0.173385474 15.2986206,-0.173385474 14.4306753,0.589439655 L0.422054598,12.9037356 C-0.374281609,13.6030891 0.121048851,14.9152299 1.18103448,14.9152299 L3.3045977,14.9152299 L3.3045977,27.6221264 C3.3045977,28.8917466 4.33382816,29.920977 5.60344828,29.920977 L11.8103448,29.920977 L11.8103448,21.875 C11.8103448,20.6053799 12.8395753,19.5761494 14.1091954,19.5761494 L17.7873563,19.5761494 C19.0569764,19.5761494 20.0862069,20.6053799 20.0862069,21.875 L20.0862069,29.920977 L26.2931034,29.920977 C27.5627236,29.920977 28.591954,28.8917466 28.591954,27.6221264 L28.591954,14.9163075 L30.7155172,14.9163075 C31.7755029,14.9163075 32.2704741,13.6030891 31.4744971,12.9037356 Z" id="路径"></path>
</svg>